<?xml version="1.0" encoding="UTF-8"?>
<!-- Generator: visioncortex VTracer 0.6.12 -->
<svg version="1.1" xmlns="http://www.w3.org/2000/svg" viewBox="0 0 609 609">
<path d="M0 0 C0.679 0.616 1.359 1.232 2.059 1.867 C27.362 25.54 45.278 63.451 47.107 98.017 C47.163 100.104 47.191 102.189 47.203 104.277 C47.209 105.047 47.215 105.817 47.22 106.61 C47.23 108.232 47.236 109.855 47.24 111.478 C47.25 113.9 47.281 116.322 47.312 118.744 C47.473 142.341 41.254 163.879 31 185 C30.671 185.679 30.342 186.357 30.003 187.057 C15.791 215.935 -8.478 239.712 -36 256 C-36.637 256.379 -37.275 256.758 -37.932 257.148 C-55.401 267.366 -74.134 272.689 -94 276 C-94.532 276.096 -94.532 276.096 -97.223 276.582 C-138.865 281.19 -181.04 269.017 -213.812 243.062 C-215.888 241.39 -217.945 239.698 -220 238 C-220.953 237.277 -221.905 236.554 -222.887 235.809 C-223.584 235.212 -224.281 234.615 -225 234 C-225 233.34 -225 232.68 -225 232 C-225.292 231.87 -225.292 231.87 -226.77 231.215 C-249.082 219.062 -265.52 183.099 -272.625 159.762 C-284.549 118.59 -279.662 74.519 -259 37 C-258.435 35.946 -257.871 34.891 -257.289 33.805 C-250.249 21.145 -240.929 10.443 -231 0 C-230.37 -0.695 -229.739 -1.39 -229.09 -2.105 C-204.991 -27.793 -168.474 -42.988 -134 -47 C-132.8 -47.142 -131.6 -47.284 -130.363 -47.43 C-81.419 -51.845 -35.086 -33.763 0 0 Z " fill="#246FFB" transform="translate(420,120)"/>
<path d="M0 0 C0.86 0.193 1.72 0.385 2.606 0.583 C47.95 10.946 90.147 37.514 119 74 C119.806 75 120.611 76.001 121.441 77.031 C145.595 107.362 160.238 143.584 165 182 C165.131 183.003 165.263 184.006 165.398 185.039 C171.066 238.191 154.597 291.535 121.875 333.375 C116.924 339.401 111.67 345.153 106.336 350.84 C88.857 369.51 76.429 389.073 71.438 414.5 C68.951 426.762 62.949 435.602 52.492 442.703 C46.428 446.186 41.874 447.123 34.842 447.161 C34.12 447.166 33.399 447.171 32.655 447.176 C30.235 447.192 27.816 447.2 25.396 447.209 C23.662 447.218 21.927 447.228 20.192 447.238 C14.493 447.27 8.793 447.29 3.094 447.309 C2.123 447.312 1.152 447.315 0.152 447.319 C-9.009 447.349 -18.17 447.376 -27.332 447.393 C-39.034 447.415 -50.735 447.457 -62.437 447.526 C-70.673 447.574 -78.909 447.598 -87.146 447.605 C-92.06 447.61 -96.974 447.625 -101.889 447.665 C-106.518 447.702 -111.147 447.71 -115.776 447.697 C-117.468 447.697 -119.159 447.707 -120.851 447.729 C-133.676 447.883 -142.992 445.496 -153 437 C-155.133 434.449 -155.133 434.449 -157.125 431.688 C-157.788 430.784 -158.45 429.88 -159.133 428.949 C-162.964 422.899 -164.518 417.05 -165.75 410.125 C-170.699 385.072 -184.819 366.914 -201.964 348.702 C-208.473 341.788 -214.452 334.707 -220 327 C-220.392 326.464 -220.784 325.928 -221.188 325.376 C-233.976 307.753 -243.843 287.868 -250 267 C-250.237 266.209 -250.473 265.419 -250.717 264.604 C-266.343 211.481 -259.718 154.015 -233.557 105.313 C-227.308 94.102 -220.275 83.796 -212 74 C-211.505 73.405 -211.009 72.809 -210.499 72.196 C-201.184 61.004 -191.467 51.034 -180 42 C-179.489 41.591 -178.978 41.182 -178.452 40.761 C-170.665 34.529 -162.693 28.925 -154 24 C-153.268 23.581 -152.537 23.162 -151.783 22.73 C-131.816 11.418 -110.471 3.625 -88 -1 C-87.267 -1.162 -86.534 -1.325 -85.778 -1.492 C-58.691 -7.296 -26.891 -6.222 0 0 Z M-168.538 77.577 C-170.059 79.058 -171.611 80.502 -173.168 81.945 C-191.841 99.56 -204.938 122.168 -214 146 C-214.251 146.657 -214.502 147.314 -214.761 147.991 C-221.76 166.652 -224.232 185.566 -224.25 205.375 C-224.251 206.132 -224.252 206.889 -224.253 207.669 C-224.243 219.357 -223.663 230.576 -221 242 C-220.722 243.254 -220.443 244.509 -220.156 245.801 C-212.459 277.221 -196.329 304.999 -174.125 328.375 C-163.409 339.666 -153.58 351.349 -146 365 C-145.397 366.049 -144.793 367.099 -144.172 368.18 C-137.528 380.456 -133.809 394.132 -131.636 407.88 C-130.85 410.501 -130.199 411.362 -128 413 C-125.094 413.38 -125.094 413.38 -121.471 413.388 C-121.138 413.39 -121.138 413.39 -119.453 413.404 C-117.216 413.418 -114.981 413.411 -112.744 413.404 C-111.143 413.41 -109.541 413.417 -107.94 413.425 C-103.586 413.443 -99.233 413.442 -94.88 413.436 C-91.249 413.433 -87.618 413.439 -83.987 413.445 C-75.424 413.459 -66.861 413.457 -58.297 413.446 C-49.455 413.435 -40.612 413.449 -31.769 413.475 C-24.184 413.498 -16.598 413.504 -9.013 413.498 C-4.479 413.495 0.054 413.497 4.588 413.515 C8.849 413.53 13.11 413.526 17.372 413.507 C18.938 413.504 20.504 413.507 22.071 413.517 C24.205 413.53 26.337 413.519 28.471 413.501 C29.667 413.501 30.862 413.501 32.094 413.501 C35 413 35 413 36.864 411.108 C38.1 408.815 38.682 406.88 39.176 404.324 C39.268 403.873 39.268 403.873 39.736 401.588 C39.926 400.631 40.116 399.674 40.312 398.688 C44.738 378.055 53.71 361.185 67 345 C67.232 344.717 67.232 344.717 68.405 343.283 C76.937 332.907 76.937 332.907 81.5 328.562 C111.165 299.82 130.272 255.507 131.203 214.418 C131.659 172.323 121.051 132.693 95 99 C94.318 98.095 93.636 97.19 92.934 96.258 C68.167 64.583 33.075 42.676 -6.062 33.812 C-6.404 33.735 -6.404 33.735 -8.132 33.343 C-20.603 30.667 -32.902 29.621 -45.625 29.688 C-45.998 29.689 -45.998 29.689 -47.883 29.694 C-92.213 29.899 -136.612 46.254 -168.538 77.577 Z " fill="#246FFA" transform="translate(351,28)"/>
<path d="M0 0 C0.744 -0.004 1.488 -0.009 2.255 -0.013 C4.756 -0.027 7.257 -0.033 9.758 -0.039 C11.549 -0.047 13.339 -0.055 15.129 -0.064 C21.016 -0.09 26.902 -0.105 32.789 -0.12 C34.815 -0.125 36.842 -0.13 38.868 -0.136 C47.298 -0.157 55.728 -0.176 64.158 -0.187 C76.239 -0.204 88.319 -0.237 100.399 -0.294 C108.893 -0.332 117.387 -0.352 125.882 -0.357 C130.955 -0.361 136.028 -0.373 141.101 -0.405 C145.875 -0.435 150.649 -0.442 155.424 -0.43 C157.174 -0.43 158.923 -0.438 160.673 -0.456 C176.602 -0.607 176.602 -0.607 182.372 3.702 C186.012 7.549 187.545 11.517 188.183 16.716 C187.494 22.132 186.015 26.324 181.871 29.966 C176.595 33.659 172.786 34.405 166.351 34.415 C165.984 34.417 165.984 34.417 164.124 34.426 C161.666 34.436 159.208 34.433 156.75 34.429 C154.985 34.433 153.221 34.438 151.457 34.444 C146.667 34.457 141.878 34.458 137.089 34.455 C133.09 34.454 129.092 34.459 125.093 34.464 C115.66 34.475 106.227 34.476 96.794 34.47 C87.063 34.464 77.332 34.476 67.601 34.497 C59.245 34.515 50.889 34.521 42.533 34.518 C37.543 34.516 32.553 34.518 27.563 34.532 C22.87 34.545 18.178 34.543 13.485 34.53 C11.764 34.527 10.042 34.53 8.321 34.538 C5.97 34.549 3.619 34.541 1.267 34.528 C-0.048 34.528 -1.364 34.528 -2.719 34.529 C-7.358 34.037 -10.716 32.602 -14.118 29.4 C-14.596 28.803 -15.074 28.206 -15.567 27.591 C-16.058 26.992 -16.549 26.393 -17.055 25.775 C-20.142 21.602 -19.671 17.16 -19.254 12.154 C-17.461 6.873 -14.644 4.355 -10.254 1.154 C-6.764 -0.009 -3.631 0.003 0 0 Z " fill="#246FFB" transform="translate(220.2543182373047,487.8460998535156)"/>
<path d="M0 0 C0.33 0.66 0.66 1.32 1 2 C2.075 1.998 3.15 1.996 4.258 1.993 C14.368 1.973 24.478 1.958 34.587 1.948 C39.785 1.943 44.983 1.936 50.181 1.925 C55.193 1.914 60.205 1.908 65.217 1.905 C67.134 1.903 69.051 1.9 70.967 1.894 C73.642 1.887 76.317 1.886 78.992 1.886 C79.793 1.883 80.593 1.879 81.418 1.876 C86.886 1.886 86.886 1.886 88 3 C88.099 4.713 88.128 6.43 88.129 8.146 C88.133 9.244 88.136 10.342 88.139 11.473 C88.138 12.071 88.138 12.071 88.133 15.094 C88.134 16.311 88.135 17.528 88.136 18.782 C88.136 21.361 88.135 23.94 88.13 26.519 C88.125 30.483 88.13 34.446 88.137 38.41 C88.136 40.909 88.135 43.408 88.133 45.906 C88.135 47.101 88.137 48.296 88.139 49.527 C88.137 50.076 88.137 50.076 88.129 52.854 C88.129 53.825 88.128 54.797 88.127 55.798 C88 58 88 58 87 59 C84.353 59.095 81.731 59.126 79.084 59.114 C78.255 59.114 77.425 59.114 76.571 59.114 C73.817 59.113 71.063 59.105 68.309 59.098 C66.404 59.096 64.5 59.094 62.596 59.093 C57.573 59.09 52.551 59.08 47.529 59.069 C42.408 59.058 37.287 59.054 32.166 59.049 C22.111 59.038 12.055 59.021 2 59 C-0.131 53.84 -0.713 49.226 -1.188 43.688 C-1.231 43.187 -1.231 43.187 -1.45 40.654 C-2.467 27.182 -2.17 13.356 0 0 Z " fill="#FCC303" transform="translate(143,208)"/>
<path d="M0 0 C0.33 0 0.66 0 1 0 C1.779 5.524 2.159 10.878 2.168 16.453 C2.17 16.844 2.17 16.844 2.178 18.821 C2.183 20.465 2.185 22.109 2.185 23.752 C2.187 26.23 2.206 28.706 2.225 31.184 C2.255 39.904 2.181 48.487 0 57 C-1.777 58.777 -4.152 58.12 -6.519 58.124 C-6.914 58.123 -6.914 58.123 -8.916 58.114 C-9.745 58.114 -10.575 58.114 -11.429 58.114 C-14.183 58.113 -16.937 58.105 -19.691 58.098 C-21.596 58.096 -23.5 58.094 -25.404 58.093 C-30.427 58.09 -35.449 58.08 -40.471 58.069 C-46.492 58.057 -52.512 58.052 -58.533 58.046 C-67.689 58.037 -76.844 58.017 -86 58 C-86 39.52 -86 21.04 -86 2 C-57.62 2 -29.24 2 0 2 C0 1.34 0 0.68 0 0 Z " fill="#FEC400" transform="translate(465,208)"/>
<path d="M0 0 C44.55 0 89.1 0 135 0 C132.648 14.112 123.151 25.354 112.312 34.25 C94.748 46.43 74.543 51.442 53.402 47.785 C33.176 43.118 17.272 32.417 5.883 15.129 C0 5.353 0 5.353 0 0 Z " fill="#2770F7" transform="translate(237,534)"/>
<path d="M0 0 C0.33 0.66 0.66 1.32 1 2 C20.8 2 40.6 2 61 2 C61 20.48 61 38.96 61 58 C32.62 58 4.24 58 -25 58 C-20.316 39.265 -20.316 39.265 -17.312 32 C-17.144 31.585 -17.144 31.585 -16.29 29.484 C-11.93 19.05 -6.346 9.347 0 0 Z " fill="#FDC401" transform="translate(170,142)"/>
<path d="M0 0 C8.166 9.887 13.588 20.744 18.375 32.562 C18.792 33.578 19.208 34.593 19.637 35.64 C22.727 43.506 24.179 50.504 26 59 C-2.05 58.67 -30.1 58.34 -59 58 C-59 39.52 -59 21.04 -59 2 C-39.53 2 -20.06 2 0 2 C0 1.34 0 0.68 0 0 Z " fill="#FEC400" transform="translate(438,142)"/>
<path d="M0 0 C27.39 0 54.78 0 83 0 C83 18.81 83 37.62 83 57 C74.255 57.206 65.51 57.413 56.5 57.625 C55.127 57.671 55.127 57.671 48.178 57.901 C45.983 57.93 43.788 57.956 41.594 57.977 C40.469 58.028 39.344 58.079 38.185 58.132 C33.38 58.137 30.276 58.104 26.552 54.882 C24.483 52.339 22.711 49.794 21 47 C20.719 46.562 20.719 46.562 19.298 44.342 C17.767 41.912 16.343 39.442 14.938 36.938 C14.427 36.034 13.916 35.13 13.389 34.198 C7.245 23.117 2.758 12.41 0 0 Z " fill="#FDC402" transform="translate(147,276)"/>
<path d="M0 0 C0.763 0.004 1.526 0.007 2.313 0.011 C2.713 0.011 2.713 0.011 4.737 0.01 C7.393 0.011 10.05 0.019 12.707 0.027 C14.544 0.029 16.381 0.03 18.218 0.031 C23.063 0.035 27.908 0.045 32.753 0.056 C37.692 0.066 42.632 0.071 47.572 0.076 C57.272 0.086 66.972 0.103 76.672 0.124 C76.212 1.865 75.748 3.605 75.282 5.344 C75.024 6.313 74.766 7.282 74.5 8.28 C73.326 12.31 71.735 16.067 69.984 19.874 C69.81 20.257 69.81 20.257 68.929 22.195 C62.859 35.383 56.379 48.991 45.672 59.124 C45.672 58.464 45.672 57.804 45.672 57.124 C28.512 57.124 11.352 57.124 -6.328 57.124 C-6.349 49.847 -6.369 42.569 -6.38 35.292 C-6.385 31.903 -6.392 28.514 -6.404 25.126 C-6.417 21.241 -6.421 17.357 -6.426 13.472 C-6.431 12.252 -6.436 11.033 -6.442 9.776 C-6.442 8.655 -6.442 7.534 -6.442 6.379 C-6.444 5.386 -6.446 4.393 -6.449 3.371 C-6.216 -0.97 -3.756 0.007 0 0 Z " fill="#FDC402" transform="translate(385.3282470703125,275.8755798339844)"/>
<path d="M0 0 C1.158 -0.003 2.316 -0.006 3.509 -0.01 C4.769 -0.008 6.03 -0.006 7.328 -0.003 C8.612 -0.004 9.895 -0.005 11.218 -0.006 C13.938 -0.008 16.659 -0.006 19.379 -0.001 C22.873 0.005 26.367 0.001 29.861 -0.005 C33.183 -0.009 36.506 -0.006 39.828 -0.003 C41.089 -0.005 42.349 -0.007 43.647 -0.01 C44.805 -0.006 45.963 -0.003 47.156 0 C48.181 0.001 49.207 0.002 50.263 0.002 C52.578 0.129 52.578 0.129 53.578 1.129 C53.672 2.879 53.696 4.632 53.692 6.384 C53.692 7.52 53.691 8.657 53.691 9.828 C53.686 11.033 53.681 12.237 53.676 13.477 C53.675 14.577 53.674 15.677 53.673 16.81 C53.667 20.937 53.654 25.065 53.641 29.192 C53.62 38.411 53.599 47.631 53.578 57.129 C33.778 57.129 13.978 57.129 -6.422 57.129 C-6.442 47.91 -6.463 38.691 -6.484 29.192 C-6.493 26.277 -6.503 23.363 -6.512 20.36 C-6.515 18.066 -6.517 15.771 -6.52 13.477 C-6.525 12.273 -6.53 11.069 -6.535 9.828 C-6.535 8.692 -6.535 7.555 -6.535 6.384 C-6.538 5.391 -6.54 4.398 -6.542 3.376 C-6.309 -0.97 -3.769 0.003 0 0 Z " fill="#FDC401" transform="translate(246.421875,275.87060546875)"/>
<path d="M0 0 C0 20.13 0 40.26 0 61 C-19.8 61 -39.6 61 -60 61 C-60 45.49 -60 29.98 -60 14 C-60.66 13.67 -61.32 13.34 -62 13 C-52.078 9.065 -42.214 5.575 -31.812 3.125 C-30.953 2.922 -30.094 2.72 -29.208 2.511 C-19.225 0.253 -10.461 0 0 0 Z " fill="#FEC400" transform="translate(300,73)"/>
<path d="M0 0 C7.538 -0.021 15.076 -0.041 22.614 -0.052 C26.124 -0.057 29.634 -0.064 33.144 -0.075 C37.168 -0.088 41.191 -0.093 45.215 -0.098 C46.478 -0.103 47.742 -0.108 49.044 -0.113 C50.205 -0.113 51.366 -0.113 52.562 -0.114 C53.076 -0.115 53.076 -0.115 55.678 -0.12 C58 0 58 0 59 1 C59.094 2.749 59.117 4.502 59.114 6.254 C59.113 7.391 59.113 8.528 59.113 9.699 C59.108 10.903 59.103 12.107 59.098 13.348 C59.097 14.448 59.096 15.547 59.095 16.681 C59.089 20.808 59.075 24.935 59.062 29.062 C59.042 38.282 59.021 47.501 59 57 C39.53 57 20.06 57 0 57 C0 38.19 0 19.38 0 0 Z " fill="#FDC401" transform="translate(310,276)"/>
<path d="M0 0 C19.8 0 39.6 0 60 0 C60 18.48 60 36.96 60 56 C40.2 56 20.4 56 0 56 C0 37.52 0 19.04 0 0 Z " fill="#FEC400" transform="translate(240,210)"/>
<path d="M0 0 C19.8 0 39.6 0 60 0 C60 18.48 60 36.96 60 56 C40.2 56 20.4 56 0 56 C0 37.52 0 19.04 0 0 Z " fill="#FEC400" transform="translate(240,144)"/>
<path d="M0 0 C21.875 0 40.891 4.781 61 13 C60.34 13.33 59.68 13.66 59 14 C59 29.51 59 45.02 59 61 C39.53 61 20.06 61 0 61 C0 40.87 0 20.74 0 0 Z " fill="#FEC400" transform="translate(310,73)"/>
<path d="M0 0 C19.47 0 38.94 0 59 0 C59 18.48 59 36.96 59 56 C39.53 56 20.06 56 0 56 C0 37.52 0 19.04 0 0 Z " fill="#FEC400" transform="translate(310,210)"/>
<path d="M0 0 C19.47 0 38.94 0 59 0 C59 18.48 59 36.96 59 56 C39.53 56 20.06 56 0 56 C0 37.52 0 19.04 0 0 Z " fill="#FEC400" transform="translate(310,144)"/>
<path d="M0 0 C19.8 0 39.6 0 60 0 C60 17.82 60 35.64 60 54 C48.722 54 48.722 54 44.914 53.336 C44.056 53.186 43.198 53.037 42.313 52.883 C41.426 52.715 40.539 52.548 39.625 52.375 C38.682 52.2 37.739 52.024 36.767 51.844 C23.612 49.281 11.257 45.448 -1 40 C-0.67 26.8 -0.34 13.6 0 0 Z " fill="#FEC400" transform="translate(240,343)"/>
<path d="M0 0 C19.47 0 38.94 0 59 0 C59 12.87 59 25.74 59 39 C59.33 39.165 59.33 39.165 61 40 C47.05 45.987 33.004 50.366 18 52.812 C17.624 52.874 17.624 52.874 15.72 53.188 C9.987 54.044 4.938 54 -1 54 C-0.67 36.18 -0.34 18.36 0 0 Z " fill="#FEC400" transform="translate(310,343)"/>
<path d="M0 0 C4.883 1.628 8.548 3.353 12.75 6.125 C13.362 6.525 13.974 6.924 14.604 7.336 C28.849 16.768 43.494 28.741 53 43 C35.51 43 18.02 43 0 43 C0 28.81 0 14.62 0 0 Z " fill="#FEC400" transform="translate(379,91)"/>
<path d="M0 0 C0 14.19 0 28.38 0 43 C-17.49 43 -34.98 43 -53 43 C-43.562 30.417 -17.954 0 0 0 Z " fill="#FEC400" transform="translate(230,91)"/>
<path d="M0 0 C14.85 0 29.7 0 45 0 C32.983 14.02 18.317 26.168 2 35 C1.34 35 0.68 35 0 35 C0 23.45 0 11.9 0 0 Z " fill="#FDC401" transform="translate(379,343)"/>
<path d="M0 0 C14.85 0 29.7 0 45 0 C45 11.55 45 23.1 45 35 C33.409 29.205 33.409 29.205 28.062 25.25 C27.478 24.825 26.894 24.399 26.292 23.961 C14.653 15.406 14.653 15.406 10 11 C10 10.34 10 9.68 10 9 C8.68 8.34 7.36 7.68 6 7 C4.02 4.69 2.04 2.38 0 0 Z " fill="#FEC400" transform="translate(185,343)"/>
</svg>
